<svg id="svg" version="1.1" width="400" height="400" viewBox="0 0 400 400" xmlns="http://www.w3.org/2000/svg" xmlns:xlink="http://www.w3.org/1999/xlink" ><g id="svgg"><path id="path0" d="M121.800 72.219 C 121.580 72.305,120.050 72.563,118.400 72.791 C 111.024 73.815,106.926 74.934,100.250 77.748 C 97.197 79.035,92.303 82.975,90.119 85.904 C 89.506 86.727,88.905 87.490,88.783 87.600 C 88.661 87.710,88.129 88.430,87.600 89.200 C 87.071 89.970,86.539 90.690,86.418 90.800 C 84.331 92.693,77.013 108.736,75.196 115.400 C 72.855 123.991,72.220 127.950,72.216 134.000 C 72.210 141.705,73.488 149.221,76.398 158.600 C 78.114 164.126,85.202 183.452,87.402 188.600 C 93.526 202.929,102.595 218.616,111.568 230.400 C 112.992 232.270,114.706 234.520,115.377 235.400 C 116.047 236.280,117.137 237.647,117.798 238.437 C 118.459 239.228,119.347 240.308,119.771 240.837 C 129.540 253.041,148.979 272.469,160.157 281.200 C 160.580 281.530,161.572 282.350,162.363 283.022 C 163.153 283.695,164.272 284.595,164.849 285.022 C 165.425 285.450,167.675 287.148,169.849 288.795 C 172.022 290.443,174.092 291.973,174.448 292.195 C 174.805 292.418,176.695 293.697,178.648 295.039 C 186.841 300.665,199.763 307.905,208.300 311.654 C 209.235 312.064,210.855 312.783,211.900 313.251 C 214.646 314.480,214.579 314.454,224.200 318.028 C 241.540 324.468,248.229 326.508,255.400 327.542 C 256.940 327.765,259.508 328.138,261.107 328.373 C 269.031 329.536,279.413 327.914,290.800 323.734 C 316.235 314.396,324.905 304.427,328.382 280.523 C 329.900 270.084,328.216 268.288,305.400 256.008 C 304.300 255.416,300.970 253.610,298.000 251.995 C 295.030 250.379,291.880 248.669,291.000 248.193 C 290.120 247.717,288.079 246.579,286.464 245.664 C 284.849 244.749,283.467 244.000,283.392 244.000 C 283.318 244.000,282.144 243.235,280.785 242.300 C 265.460 231.758,265.043 231.927,243.036 257.580 C 231.766 270.717,230.025 270.997,215.000 262.089 C 212.580 260.654,209.790 259.033,208.800 258.488 C 207.810 257.943,206.716 257.250,206.369 256.948 C 206.021 256.647,205.612 256.400,205.460 256.400 C 205.134 256.400,197.087 251.066,192.800 248.008 C 180.574 239.286,169.076 228.416,159.366 216.400 C 154.582 210.481,146.000 198.544,146.000 197.809 C 146.000 197.687,145.392 196.645,144.649 195.494 C 143.228 193.293,137.256 183.155,135.455 179.886 C 134.875 178.833,134.400 177.708,134.400 177.386 C 134.400 177.064,134.220 176.800,134.000 176.800 C 133.780 176.800,133.600 176.361,133.600 175.824 C 133.600 175.287,133.420 174.736,133.200 174.600 C 132.061 173.896,132.765 169.013,134.356 166.580 C 136.397 163.457,142.747 157.477,149.200 152.600 C 159.961 144.467,164.985 138.411,164.941 133.623 C 164.907 129.930,163.746 127.510,158.112 119.400 C 157.500 118.520,156.730 117.263,156.400 116.607 C 155.288 114.395,150.719 105.918,148.258 101.500 C 146.960 99.170,145.539 96.611,144.147 94.100 C 135.275 78.096,131.947 73.390,128.846 72.461 C 127.410 72.031,122.697 71.869,121.800 72.219 " stroke="none" fill="#ffffff" fill-rule="evenodd"></path><path id="path1" d="M65.789 8.018 C 65.628 8.279,65.915 8.385,66.550 8.300 C 67.966 8.111,68.360 7.600,67.090 7.600 C 66.517 7.600,65.931 7.788,65.789 8.018 M333.200 7.913 C 333.200 8.085,333.660 8.264,334.222 8.310 C 334.814 8.359,335.141 8.228,334.998 7.997 C 334.709 7.529,333.200 7.458,333.200 7.913 M53.800 11.180 C 52.368 11.826,52.316 11.896,53.300 11.851 C 53.905 11.823,54.400 11.693,54.400 11.561 C 54.400 11.430,54.805 11.127,55.300 10.888 C 56.817 10.157,55.504 10.412,53.800 11.180 M50.100 12.634 C 49.385 12.946,48.800 13.294,48.800 13.407 C 48.800 13.615,51.606 12.527,51.946 12.187 C 52.286 11.847,51.420 12.057,50.100 12.634 M354.751 15.240 C 355.247 15.702,355.763 15.970,355.897 15.836 C 356.032 15.702,355.795 15.329,355.371 15.009 C 354.193 14.118,353.731 14.290,354.751 15.240 M385.600 46.400 C 385.600 46.620,385.983 47.183,386.450 47.650 C 386.918 48.118,387.188 48.252,387.050 47.950 C 386.913 47.648,386.689 47.085,386.554 46.700 C 386.290 45.952,385.600 45.735,385.600 46.400 M11.293 53.560 C 10.661 55.303,10.671 55.386,11.428 54.629 C 11.773 54.284,11.995 53.596,11.921 53.101 C 11.803 52.316,11.722 52.375,11.293 53.560 M388.800 53.334 C 388.800 53.873,389.042 54.407,389.338 54.521 C 389.723 54.669,389.823 54.453,389.690 53.758 C 389.436 52.430,388.800 52.127,388.800 53.334 M391.661 63.224 C 391.608 64.108,391.750 64.800,391.984 64.800 C 392.470 64.800,392.554 62.142,392.077 61.847 C 391.899 61.738,391.712 62.357,391.661 63.224 M7.867 65.867 C 7.720 66.013,7.600 66.583,7.600 67.133 C 7.600 68.353,8.113 67.949,8.295 66.585 C 8.431 65.572,8.330 65.403,7.867 65.867 M392.600 66.638 C 392.600 67.167,392.735 67.600,392.900 67.600 C 393.065 67.600,393.200 67.251,393.200 66.824 C 393.200 66.397,393.065 65.964,392.900 65.862 C 392.735 65.760,392.600 66.109,392.600 66.638 M7.606 333.076 C 7.603 333.998,7.762 334.853,7.960 334.975 C 8.425 335.263,8.430 332.692,7.966 331.959 C 7.728 331.583,7.610 331.948,7.606 333.076 M8.400 337.376 C 8.400 339.315,9.027 339.484,9.139 337.576 C 9.192 336.692,9.050 336.000,8.816 336.000 C 8.587 336.000,8.400 336.619,8.400 337.376 M391.232 340.769 C 391.214 341.081,390.918 341.648,390.574 342.029 C 390.158 342.488,390.091 342.809,390.375 342.984 C 390.848 343.277,391.733 341.338,391.445 340.639 C 391.344 340.396,391.249 340.454,391.232 340.769 M389.387 346.600 C 389.284 346.930,389.112 347.479,389.005 347.821 C 388.897 348.162,388.966 348.345,389.157 348.227 C 389.348 348.109,389.591 347.559,389.697 347.006 C 389.906 345.913,389.690 345.630,389.387 346.600 M12.818 350.639 C 12.793 351.257,14.044 353.689,14.271 353.463 C 14.374 353.360,14.093 352.584,13.647 351.738 C 13.200 350.892,12.827 350.397,12.818 350.639 M383.002 358.798 C 382.603 359.239,382.407 359.600,382.567 359.600 C 382.988 359.600,384.128 358.395,383.912 358.179 C 383.811 358.078,383.402 358.356,383.002 358.798 M32.400 376.225 C 32.400 376.525,33.473 377.600,33.771 377.600 C 34.280 377.600,33.951 376.962,33.200 376.493 C 32.760 376.218,32.400 376.098,32.400 376.225 M48.800 387.389 C 48.800 387.706,51.700 388.833,51.928 388.605 C 52.041 388.492,52.035 388.400,51.916 388.400 C 51.796 388.400,51.046 388.128,50.249 387.795 C 49.452 387.462,48.800 387.279,48.800 387.389 M53.640 389.120 C 53.306 389.231,53.608 389.524,54.404 389.858 C 55.128 390.163,55.814 390.320,55.927 390.206 C 56.041 390.093,55.936 390.000,55.695 390.000 C 55.454 390.000,55.018 389.761,54.725 389.468 C 54.432 389.175,53.944 389.019,53.640 389.120 M346.400 389.164 C 346.400 389.336,345.995 389.691,345.500 389.951 C 344.826 390.306,344.801 390.359,345.400 390.161 C 345.840 390.016,346.605 389.809,347.100 389.702 C 348.216 389.460,348.275 388.991,347.200 388.910 C 346.760 388.877,346.400 388.991,346.400 389.164 M65.862 392.900 C 65.964 393.065,66.397 393.200,66.824 393.200 C 67.251 393.200,67.600 393.065,67.600 392.900 C 67.600 392.735,67.167 392.600,66.638 392.600 C 66.109 392.600,65.760 392.735,65.862 392.900 M333.200 392.900 C 333.200 393.065,333.549 393.200,333.976 393.200 C 334.403 393.200,334.836 393.065,334.938 392.900 C 335.040 392.735,334.691 392.600,334.162 392.600 C 333.633 392.600,333.200 392.735,333.200 392.900 " stroke="none" fill="#000055" fill-rule="evenodd"></path><path id="path2" d="M67.849 7.920 C 67.740 8.096,66.965 8.285,66.126 8.339 C 63.541 8.506,63.007 8.590,62.799 8.863 C 62.688 9.008,61.968 9.204,61.199 9.298 C 60.430 9.392,59.530 9.580,59.200 9.715 C 58.870 9.850,57.843 10.154,56.918 10.391 C 55.993 10.627,54.979 11.078,54.666 11.392 C 54.352 11.705,54.003 11.870,53.891 11.758 C 53.714 11.581,51.884 12.259,47.500 14.127 C 46.895 14.384,46.400 14.731,46.400 14.898 C 46.400 15.064,46.145 15.200,45.833 15.200 C 45.522 15.200,45.207 15.335,45.133 15.500 C 45.060 15.665,44.145 16.233,43.100 16.763 C 42.055 17.292,41.200 17.877,41.200 18.063 C 41.200 18.248,40.975 18.400,40.700 18.401 C 40.425 18.401,39.570 18.941,38.800 19.600 C 38.030 20.259,37.251 20.799,37.069 20.799 C 36.886 20.800,36.046 21.520,35.200 22.400 C 34.354 23.280,33.481 24.000,33.260 24.000 C 32.869 24.000,24.800 31.756,24.800 32.131 C 24.800 32.324,23.547 33.822,21.300 36.314 C 20.585 37.107,20.000 37.909,20.000 38.095 C 20.000 38.281,19.640 38.820,19.200 39.292 C 18.760 39.764,18.400 40.387,18.400 40.675 C 18.400 40.964,18.242 41.200,18.049 41.200 C 17.855 41.200,17.473 41.740,17.200 42.400 C 16.927 43.060,16.545 43.600,16.351 43.600 C 16.158 43.600,16.000 44.028,16.000 44.551 C 16.000 45.077,15.620 45.755,15.150 46.067 C 14.626 46.415,14.300 47.053,14.300 47.732 C 14.300 48.338,14.206 48.739,14.091 48.625 C 13.796 48.329,12.000 52.317,12.000 53.268 C 12.000 53.702,11.767 54.290,11.481 54.576 C 11.196 54.861,10.726 55.883,10.436 56.847 C 10.146 57.811,9.750 58.960,9.556 59.400 C 9.362 59.840,9.164 60.785,9.117 61.500 C 9.069 62.215,8.918 62.800,8.782 62.800 C 8.645 62.800,8.533 63.062,8.533 63.382 C 8.533 63.703,8.683 63.872,8.867 63.759 C 9.050 63.645,9.200 63.844,9.200 64.200 C 9.200 64.556,9.020 64.736,8.800 64.600 C 8.570 64.458,8.379 64.872,8.350 65.576 C 8.295 66.924,8.255 67.122,7.863 68.000 C 7.505 68.801,7.790 331.242,8.151 333.787 C 8.306 334.879,8.593 335.872,8.788 335.993 C 8.983 336.113,9.143 337.255,9.143 338.531 C 9.143 339.806,9.351 341.100,9.605 341.405 C 9.858 341.711,10.126 342.375,10.199 342.881 C 10.536 345.220,14.536 354.368,15.462 354.920 C 15.758 355.096,16.000 355.580,16.000 355.996 C 16.000 356.412,16.180 356.864,16.400 357.000 C 16.620 357.136,16.800 357.515,16.800 357.842 C 16.800 358.169,17.250 358.886,17.800 359.436 C 18.350 359.986,18.800 360.595,18.800 360.790 C 18.800 360.984,19.031 361.381,19.313 361.671 C 19.595 361.962,20.263 362.830,20.798 363.600 C 21.332 364.370,22.271 365.477,22.885 366.060 C 23.498 366.644,24.000 367.279,24.000 367.472 C 24.000 367.665,24.360 368.083,24.800 368.400 C 25.240 368.717,25.600 369.123,25.600 369.302 C 25.600 369.654,31.037 375.200,31.382 375.200 C 31.691 375.200,33.082 376.378,35.044 378.300 C 35.998 379.235,36.972 380.000,37.208 380.000 C 37.443 380.000,38.086 380.450,38.636 381.000 C 39.186 381.550,39.780 382.000,39.956 382.000 C 40.132 382.000,40.799 382.450,41.438 383.000 C 42.077 383.549,42.825 383.999,43.100 384.000 C 43.375 384.000,43.600 384.180,43.600 384.400 C 43.600 384.620,43.960 384.800,44.400 384.800 C 44.840 384.800,45.200 384.980,45.200 385.200 C 45.200 385.420,45.386 385.600,45.614 385.600 C 45.842 385.600,46.499 385.909,47.075 386.286 C 48.508 387.225,52.422 388.868,53.400 388.940 C 53.840 388.973,54.433 389.220,54.718 389.489 C 55.003 389.758,55.993 390.184,56.918 390.435 C 57.843 390.686,58.870 390.990,59.200 391.111 C 59.530 391.232,60.430 391.408,61.199 391.502 C 61.968 391.596,62.688 391.792,62.799 391.937 C 63.011 392.214,63.651 392.323,66.098 392.495 C 66.922 392.553,67.597 392.735,67.598 392.900 C 67.599 393.065,127.360 393.200,200.400 393.200 C 273.440 393.200,333.200 393.065,333.200 392.900 C 333.200 392.735,333.605 392.576,334.100 392.546 C 337.196 392.359,338.000 392.234,338.000 391.935 C 338.000 391.751,338.632 391.600,339.405 391.600 C 340.178 391.600,341.123 391.437,341.505 391.237 C 341.887 391.038,342.957 390.673,343.882 390.427 C 344.807 390.180,345.797 389.753,346.082 389.477 C 346.367 389.201,347.105 388.937,347.721 388.890 C 348.338 388.844,349.238 388.586,349.721 388.317 C 350.205 388.048,350.690 387.798,350.800 387.760 C 350.910 387.723,351.405 387.561,351.900 387.400 C 352.395 387.238,352.800 386.948,352.800 386.753 C 352.800 386.559,353.070 386.400,353.400 386.400 C 353.730 386.400,354.000 386.220,354.000 386.000 C 354.000 385.780,354.360 385.600,354.800 385.600 C 355.240 385.600,355.600 385.420,355.600 385.200 C 355.600 384.980,355.960 384.800,356.400 384.800 C 356.840 384.800,357.200 384.642,357.200 384.449 C 357.200 384.255,357.740 383.873,358.400 383.600 C 359.060 383.327,359.600 382.945,359.600 382.751 C 359.600 382.558,359.843 382.400,360.141 382.400 C 360.438 382.400,361.246 381.860,361.937 381.200 C 362.628 380.540,363.379 380.000,363.607 380.000 C 363.835 380.000,364.850 379.214,365.863 378.253 C 368.268 375.971,369.158 375.200,369.386 375.200 C 369.736 375.200,375.200 369.573,375.200 369.213 C 375.200 369.016,375.560 368.740,376.000 368.600 C 376.440 368.460,376.800 368.074,376.800 367.742 C 376.800 367.409,377.520 366.446,378.400 365.600 C 379.280 364.754,380.000 363.851,380.000 363.592 C 380.000 363.333,380.540 362.617,381.200 362.000 C 381.860 361.383,382.407 360.546,382.416 360.140 C 382.425 359.733,382.965 358.777,383.616 358.015 C 384.267 357.253,384.800 356.398,384.800 356.115 C 384.800 355.832,384.935 355.600,385.101 355.600 C 385.457 355.600,386.745 353.135,388.130 349.800 C 389.624 346.202,389.731 345.864,389.629 345.056 C 389.577 344.647,389.709 344.420,389.922 344.552 C 390.135 344.683,390.403 344.433,390.517 343.996 C 390.631 343.559,390.550 343.093,390.336 342.961 C 390.107 342.819,390.203 342.439,390.569 342.034 C 390.911 341.656,391.308 340.729,391.452 339.974 C 391.595 339.218,391.883 338.383,392.091 338.118 C 392.299 337.852,392.372 337.478,392.253 337.285 C 392.134 337.093,392.291 335.970,392.603 334.790 C 393.048 333.102,393.065 332.516,392.684 332.045 C 392.302 331.572,392.305 331.510,392.701 331.748 C 393.102 331.989,393.202 305.663,393.199 199.824 C 393.197 127.101,393.061 67.600,392.898 67.599 C 392.734 67.599,392.580 67.040,392.555 66.357 C 392.531 65.674,392.311 64.993,392.068 64.842 C 391.825 64.692,391.626 63.766,391.627 62.784 C 391.629 60.720,391.605 60.591,390.620 57.400 C 390.213 56.080,389.637 54.800,389.340 54.556 C 389.043 54.312,388.800 53.745,388.800 53.296 C 388.800 52.195,386.989 48.344,386.638 48.696 C 386.484 48.850,386.476 48.668,386.620 48.291 C 386.788 47.853,386.652 47.518,386.242 47.361 C 385.889 47.225,385.600 46.699,385.600 46.191 C 385.600 45.682,385.465 45.207,385.300 45.133 C 385.135 45.060,384.567 44.145,384.037 43.100 C 383.508 42.055,382.923 41.200,382.737 41.200 C 382.552 41.200,382.400 40.922,382.400 40.582 C 382.400 40.242,381.950 39.514,381.400 38.964 C 380.850 38.414,380.400 37.815,380.400 37.632 C 380.400 37.450,379.680 36.513,378.800 35.551 C 377.920 34.588,377.200 33.668,377.200 33.507 C 377.200 33.033,368.911 24.800,368.434 24.800 C 368.195 24.800,368.000 24.620,368.000 24.400 C 368.000 24.180,367.814 24.000,367.587 24.000 C 367.359 24.000,366.573 23.415,365.840 22.700 C 364.222 21.123,362.865 20.000,362.579 20.000 C 362.462 20.000,361.980 19.640,361.508 19.200 C 361.036 18.760,360.413 18.400,360.125 18.400 C 359.836 18.400,359.600 18.220,359.600 18.000 C 359.600 17.780,359.375 17.596,359.100 17.591 C 358.825 17.586,358.150 17.230,357.600 16.800 C 357.050 16.370,356.367 16.014,356.083 16.009 C 355.799 16.004,355.190 15.649,354.729 15.220 C 354.028 14.566,351.491 13.127,350.800 12.991 C 350.690 12.969,349.890 12.642,349.021 12.263 C 348.153 11.885,347.223 11.659,346.954 11.762 C 346.686 11.865,346.378 11.719,346.270 11.437 C 346.161 11.155,345.201 10.699,344.136 10.423 C 343.071 10.147,341.930 9.822,341.600 9.699 C 341.270 9.577,340.550 9.409,340.000 9.326 C 339.450 9.243,338.730 9.059,338.400 8.916 C 337.682 8.605,337.136 8.519,334.900 8.363 C 333.965 8.297,333.200 8.099,333.200 7.922 C 333.200 7.502,68.109 7.500,67.849 7.920 M129.854 72.189 C 131.942 73.261,136.636 79.425,139.609 85.000 C 140.196 86.100,141.092 87.720,141.600 88.600 C 142.108 89.480,142.900 90.920,143.362 91.800 C 143.823 92.680,144.290 93.490,144.400 93.600 C 144.616 93.816,145.783 95.932,147.268 98.800 C 147.781 99.790,148.290 100.690,148.401 100.800 C 148.511 100.910,148.869 101.540,149.197 102.200 C 149.525 102.860,150.354 104.390,151.038 105.600 C 152.463 108.118,154.451 111.772,156.561 115.753 C 158.125 118.702,159.576 120.917,160.086 121.133 C 160.258 121.207,160.400 121.442,160.400 121.655 C 160.400 121.869,161.133 123.124,162.029 124.443 C 166.308 130.744,166.698 135.423,163.323 139.975 C 161.584 142.321,155.908 147.907,152.600 150.529 C 150.620 152.098,148.910 153.485,148.800 153.610 C 148.690 153.736,147.970 154.273,147.200 154.804 C 146.430 155.335,144.952 156.564,143.916 157.536 C 142.880 158.507,141.620 159.585,141.116 159.931 C 135.872 163.529,131.074 172.639,133.600 174.200 C 133.820 174.336,134.000 174.776,134.000 175.178 C 134.000 176.062,137.354 182.615,139.642 186.200 C 140.203 187.080,140.917 188.385,141.229 189.100 C 141.540 189.815,141.931 190.400,142.098 190.400 C 142.264 190.400,142.400 190.670,142.400 191.000 C 142.400 191.330,142.536 191.600,142.702 191.600 C 142.869 191.600,143.264 192.185,143.580 192.900 C 143.897 193.615,144.480 194.549,144.878 194.975 C 145.275 195.402,145.600 195.915,145.600 196.115 C 145.600 196.479,153.878 208.821,154.375 209.200 C 154.520 209.310,155.071 210.030,155.600 210.800 C 156.129 211.570,156.660 212.290,156.781 212.400 C 156.901 212.510,157.628 213.410,158.394 214.400 C 160.274 216.827,160.625 217.257,163.400 220.542 C 166.232 223.895,176.998 234.865,179.185 236.626 C 181.312 238.339,184.203 240.765,185.935 242.291 C 186.741 243.001,187.559 243.586,187.753 243.591 C 187.947 243.596,188.397 243.924,188.753 244.319 C 189.109 244.714,190.030 245.473,190.800 246.006 C 191.570 246.538,192.438 247.205,192.729 247.487 C 193.019 247.769,193.411 248.000,193.600 248.000 C 193.789 248.000,194.201 248.258,194.516 248.573 C 195.899 249.957,209.222 258.400,210.021 258.400 C 210.230 258.400,210.400 258.580,210.400 258.800 C 210.400 259.020,210.583 259.200,210.807 259.200 C 211.031 259.200,212.400 259.920,213.848 260.800 C 215.297 261.680,216.571 262.400,216.679 262.400 C 216.788 262.400,217.354 262.740,217.938 263.156 C 223.514 267.124,230.012 268.612,233.140 266.638 C 235.306 265.271,242.213 258.315,244.147 255.554 C 244.490 255.065,245.469 253.930,246.322 253.032 C 247.176 252.135,248.838 250.230,250.015 248.800 C 262.342 233.828,266.833 232.441,278.281 240.072 C 280.525 241.568,283.000 243.154,283.781 243.596 C 284.561 244.038,285.875 244.787,286.700 245.260 C 287.525 245.733,289.370 246.741,290.800 247.500 C 292.230 248.259,293.940 249.202,294.600 249.595 C 295.260 249.988,297.240 251.074,299.000 252.009 C 300.760 252.944,303.145 254.224,304.300 254.854 C 305.455 255.485,307.345 256.508,308.500 257.130 C 311.319 258.647,312.560 259.360,312.800 259.601 C 312.910 259.711,313.540 260.065,314.200 260.388 C 314.860 260.711,316.152 261.476,317.072 262.088 C 317.992 262.699,318.860 263.200,319.002 263.200 C 319.416 263.200,325.693 267.593,326.928 268.746 C 329.685 271.323,329.903 277.481,327.602 287.800 C 327.356 288.900,327.056 290.387,326.934 291.104 C 326.812 291.821,326.551 292.506,326.356 292.627 C 326.160 292.748,326.000 293.276,326.000 293.800 C 326.000 294.324,325.820 294.864,325.600 295.000 C 325.380 295.136,325.200 295.599,325.200 296.029 C 325.200 296.459,325.039 297.123,324.842 297.505 C 324.645 297.887,323.884 299.460,323.150 301.000 C 322.416 302.540,321.722 303.890,321.607 304.000 C 321.492 304.110,320.636 305.190,319.704 306.400 C 318.773 307.610,317.423 309.090,316.705 309.688 C 315.987 310.287,314.860 311.244,314.200 311.816 C 310.536 314.992,302.824 319.409,295.600 322.470 C 295.050 322.703,294.287 323.052,293.905 323.247 C 293.523 323.441,292.972 323.600,292.681 323.600 C 292.389 323.600,291.405 323.960,290.494 324.400 C 289.584 324.840,288.481 325.200,288.043 325.200 C 287.605 325.200,287.136 325.380,287.000 325.600 C 286.864 325.820,286.324 326.000,285.800 326.000 C 285.276 326.000,284.748 326.160,284.627 326.356 C 284.422 326.688,283.492 326.905,280.000 327.436 C 279.230 327.554,278.240 327.807,277.800 327.999 C 276.445 328.589,272.455 328.917,266.600 328.918 C 261.350 328.919,258.407 328.641,252.600 327.599 C 251.280 327.363,249.524 327.067,248.697 326.942 C 247.871 326.817,247.095 326.555,246.974 326.358 C 246.852 326.161,246.311 326.000,245.771 326.000 C 245.231 326.000,244.477 325.838,244.095 325.641 C 243.713 325.444,242.050 324.871,240.400 324.369 C 238.750 323.867,237.229 323.308,237.020 323.128 C 236.811 322.948,236.361 322.801,236.020 322.802 C 235.679 322.803,233.600 322.098,231.400 321.237 C 229.200 320.375,226.050 319.193,224.400 318.610 C 222.750 318.027,221.087 317.381,220.705 317.175 C 220.323 316.969,219.744 316.800,219.418 316.800 C 219.091 316.800,218.183 316.440,217.400 316.000 C 216.617 315.560,215.632 315.200,215.211 315.200 C 214.791 315.200,214.336 315.020,214.200 314.800 C 214.064 314.580,213.603 314.400,213.176 314.400 C 212.749 314.400,212.400 314.220,212.400 314.000 C 212.400 313.780,212.128 313.600,211.795 313.600 C 211.462 313.600,210.877 313.441,210.495 313.246 C 207.212 311.572,204.596 310.400,204.144 310.400 C 203.845 310.400,203.600 310.220,203.600 310.000 C 203.600 309.780,203.240 309.600,202.800 309.600 C 202.360 309.600,202.000 309.420,202.000 309.200 C 202.000 308.980,201.788 308.800,201.528 308.800 C 201.037 308.800,193.152 304.860,192.800 304.439 C 192.690 304.308,191.790 303.770,190.800 303.244 C 189.161 302.374,186.172 300.549,183.600 298.849 C 183.050 298.486,182.105 297.936,181.500 297.627 C 180.895 297.318,180.400 296.915,180.400 296.732 C 180.400 296.550,180.175 296.400,179.900 296.399 C 179.625 296.399,178.770 295.859,178.000 295.200 C 177.230 294.541,176.375 294.001,176.100 294.001 C 175.825 294.000,175.600 293.862,175.600 293.694 C 175.600 293.526,174.880 292.944,174.000 292.400 C 173.120 291.856,172.400 291.274,172.400 291.106 C 172.400 290.938,172.216 290.800,171.992 290.800 C 171.572 290.800,166.892 287.299,161.600 283.025 C 159.950 281.693,158.262 280.332,157.849 280.001 C 157.436 279.671,156.107 278.500,154.895 277.400 C 153.684 276.300,152.042 274.862,151.246 274.204 C 145.176 269.186,127.756 251.344,121.757 244.000 C 121.128 243.230,120.513 242.510,120.392 242.400 C 119.180 241.302,110.000 229.296,110.000 228.808 C 110.000 228.584,109.862 228.400,109.694 228.400 C 109.526 228.400,108.944 227.680,108.400 226.800 C 107.856 225.920,107.286 225.200,107.133 225.200 C 106.979 225.200,106.740 224.841,106.601 224.402 C 106.462 223.964,106.126 223.379,105.855 223.102 C 104.575 221.797,96.800 209.165,96.800 208.390 C 96.800 208.175,96.664 208.000,96.498 208.000 C 96.331 208.000,95.943 207.415,95.635 206.700 C 95.327 205.985,94.743 204.922,94.337 204.338 C 93.932 203.754,93.600 202.989,93.600 202.638 C 93.600 202.287,93.420 202.000,93.200 202.000 C 92.980 202.000,92.800 201.640,92.800 201.200 C 92.800 200.760,92.620 200.400,92.400 200.400 C 92.180 200.400,92.000 200.040,92.000 199.600 C 92.000 199.160,91.820 198.800,91.600 198.800 C 91.380 198.800,91.200 198.440,91.200 198.000 C 91.200 197.560,91.020 197.200,90.800 197.200 C 90.580 197.200,90.400 196.840,90.400 196.400 C 90.400 195.960,90.220 195.600,90.000 195.600 C 89.780 195.600,89.600 195.370,89.600 195.090 C 89.600 194.809,89.066 193.504,88.413 192.190 C 87.759 190.875,87.219 189.592,87.213 189.338 C 87.206 189.084,86.856 188.184,86.435 187.338 C 85.703 185.868,84.580 182.954,82.216 176.400 C 81.195 173.566,80.927 172.870,80.026 170.700 C 79.821 170.205,79.423 169.080,79.143 168.200 C 78.863 167.320,78.523 166.420,78.389 166.200 C 78.254 165.980,77.914 164.990,77.633 164.000 C 77.352 163.010,76.960 161.887,76.761 161.505 C 76.562 161.123,76.400 160.536,76.400 160.200 C 76.400 159.864,76.238 159.277,76.039 158.895 C 75.840 158.513,75.460 157.390,75.193 156.400 C 74.927 155.410,74.562 154.240,74.382 153.800 C 74.202 153.360,73.944 152.370,73.809 151.600 C 73.674 150.830,73.385 149.210,73.167 148.000 C 71.146 136.800,71.425 126.706,74.003 117.800 C 74.257 116.920,74.562 115.703,74.679 115.095 C 74.796 114.487,75.051 113.892,75.246 113.771 C 75.441 113.651,75.600 113.124,75.600 112.600 C 75.600 112.076,75.780 111.536,76.000 111.400 C 76.220 111.264,76.400 110.801,76.400 110.371 C 76.400 109.941,76.559 109.277,76.753 108.895 C 76.948 108.513,77.289 107.750,77.513 107.200 C 82.360 95.256,92.039 80.459,95.038 80.408 C 95.279 80.403,95.802 80.040,96.200 79.600 C 96.598 79.160,97.151 78.800,97.429 78.800 C 97.706 78.800,97.993 78.665,98.067 78.500 C 98.288 78.001,101.622 76.400,102.438 76.400 C 102.857 76.400,103.200 76.220,103.200 76.000 C 103.200 75.780,103.639 75.600,104.176 75.600 C 104.713 75.600,105.264 75.420,105.400 75.200 C 105.536 74.980,106.076 74.800,106.600 74.800 C 107.124 74.800,107.664 74.620,107.800 74.400 C 107.936 74.180,108.541 74.000,109.144 74.000 C 109.747 74.000,110.411 73.837,110.620 73.639 C 110.829 73.440,111.810 73.178,112.800 73.057 C 117.704 72.456,120.056 72.077,120.283 71.850 C 120.819 71.314,128.695 71.593,129.854 72.189 " stroke="none" fill="#0554b5" fill-rule="evenodd"></path><path id="path3" d="" stroke="none" fill="#008e8e" fill-rule="evenodd"></path><path id="path4" d="M120.283 71.850 C 120.056 72.077,117.704 72.456,112.800 73.057 C 111.810 73.178,110.829 73.440,110.620 73.639 C 110.411 73.837,109.747 74.000,109.144 74.000 C 108.541 74.000,107.936 74.180,107.800 74.400 C 107.664 74.620,107.124 74.800,106.600 74.800 C 106.076 74.800,105.536 74.980,105.400 75.200 C 105.264 75.420,104.713 75.600,104.176 75.600 C 103.639 75.600,103.200 75.780,103.200 76.000 C 103.200 76.220,102.857 76.400,102.438 76.400 C 101.622 76.400,98.288 78.001,98.067 78.500 C 97.993 78.665,97.706 78.800,97.429 78.800 C 97.151 78.800,96.598 79.160,96.200 79.600 C 95.802 80.040,95.279 80.403,95.038 80.408 C 92.039 80.459,82.360 95.256,77.513 107.200 C 77.289 107.750,76.948 108.513,76.753 108.895 C 76.559 109.277,76.400 109.941,76.400 110.371 C 76.400 110.801,76.220 111.264,76.000 111.400 C 75.780 111.536,75.600 112.076,75.600 112.600 C 75.600 113.124,75.441 113.651,75.246 113.771 C 75.051 113.892,74.796 114.487,74.679 115.095 C 74.562 115.703,74.257 116.920,74.003 117.800 C 71.425 126.706,71.146 136.800,73.167 148.000 C 73.385 149.210,73.674 150.830,73.809 151.600 C 73.944 152.370,74.202 153.360,74.382 153.800 C 74.562 154.240,74.927 155.410,75.193 156.400 C 75.460 157.390,75.840 158.513,76.039 158.895 C 76.238 159.277,76.400 159.864,76.400 160.200 C 76.400 160.536,76.562 161.123,76.761 161.505 C 76.960 161.887,77.352 163.010,77.633 164.000 C 77.914 164.990,78.254 165.980,78.389 166.200 C 78.523 166.420,78.863 167.320,79.143 168.200 C 79.423 169.080,79.821 170.205,80.026 170.700 C 80.927 172.870,81.195 173.566,82.216 176.400 C 84.580 182.954,85.703 185.868,86.435 187.338 C 86.856 188.184,87.206 189.084,87.213 189.338 C 87.219 189.592,87.759 190.875,88.413 192.190 C 89.066 193.504,89.600 194.809,89.600 195.090 C 89.600 195.370,89.780 195.600,90.000 195.600 C 90.220 195.600,90.400 195.960,90.400 196.400 C 90.400 196.840,90.580 197.200,90.800 197.200 C 91.020 197.200,91.200 197.560,91.200 198.000 C 91.200 198.440,91.380 198.800,91.600 198.800 C 91.820 198.800,92.000 199.160,92.000 199.600 C 92.000 200.040,92.180 200.400,92.400 200.400 C 92.620 200.400,92.800 200.760,92.800 201.200 C 92.800 201.640,92.980 202.000,93.200 202.000 C 93.420 202.000,93.600 202.287,93.600 202.638 C 93.600 202.989,93.932 203.754,94.337 204.338 C 94.743 204.922,95.327 205.985,95.635 206.700 C 95.943 207.415,96.331 208.000,96.498 208.000 C 96.664 208.000,96.800 208.175,96.800 208.390 C 96.800 209.165,104.575 221.797,105.855 223.102 C 106.126 223.379,106.462 223.964,106.601 224.402 C 106.740 224.841,106.979 225.200,107.133 225.200 C 107.286 225.200,107.856 225.920,108.400 226.800 C 108.944 227.680,109.526 228.400,109.694 228.400 C 109.862 228.400,110.000 228.584,110.000 228.808 C 110.000 229.296,119.180 241.302,120.392 242.400 C 120.513 242.510,121.128 243.230,121.757 244.000 C 127.756 251.344,145.176 269.186,151.246 274.204 C 152.042 274.862,153.684 276.300,154.895 277.400 C 156.107 278.500,157.436 279.671,157.849 280.001 C 158.262 280.332,159.950 281.693,161.600 283.025 C 166.892 287.299,171.572 290.800,171.992 290.800 C 172.216 290.800,172.400 290.938,172.400 291.106 C 172.400 291.274,173.120 291.856,174.000 292.400 C 174.880 292.944,175.600 293.526,175.600 293.694 C 175.600 293.862,175.825 294.000,176.100 294.001 C 176.375 294.001,177.230 294.541,178.000 295.200 C 178.770 295.859,179.625 296.399,179.900 296.399 C 180.175 296.400,180.400 296.550,180.400 296.732 C 180.400 296.915,180.895 297.318,181.500 297.627 C 182.105 297.936,183.050 298.486,183.600 298.849 C 186.172 300.549,189.161 302.374,190.800 303.244 C 191.790 303.770,192.690 304.308,192.800 304.439 C 193.152 304.860,201.037 308.800,201.528 308.800 C 201.788 308.800,202.000 308.980,202.000 309.200 C 202.000 309.420,202.360 309.600,202.800 309.600 C 203.240 309.600,203.600 309.780,203.600 310.000 C 203.600 310.220,203.845 310.400,204.144 310.400 C 204.596 310.400,207.212 311.572,210.495 313.246 C 210.877 313.441,211.462 313.600,211.795 313.600 C 212.128 313.600,212.400 313.780,212.400 314.000 C 212.400 314.220,212.749 314.400,213.176 314.400 C 213.603 314.400,214.064 314.580,214.200 314.800 C 214.336 315.020,214.791 315.200,215.211 315.200 C 215.632 315.200,216.617 315.560,217.400 316.000 C 218.183 316.440,219.091 316.800,219.418 316.800 C 219.744 316.800,220.323 316.969,220.705 317.175 C 221.087 317.381,222.750 318.027,224.400 318.610 C 226.050 319.193,229.200 320.375,231.400 321.237 C 233.600 322.098,235.679 322.803,236.020 322.802 C 236.361 322.801,236.811 322.948,237.020 323.128 C 237.229 323.308,238.750 323.867,240.400 324.369 C 242.050 324.871,243.713 325.444,244.095 325.641 C 244.477 325.838,245.231 326.000,245.771 326.000 C 246.311 326.000,246.852 326.161,246.974 326.358 C 247.095 326.555,247.871 326.817,248.697 326.942 C 249.524 327.067,251.280 327.363,252.600 327.599 C 258.407 328.641,261.350 328.919,266.600 328.918 C 272.455 328.917,276.445 328.589,277.800 327.999 C 278.240 327.807,279.230 327.554,280.000 327.436 C 283.492 326.905,284.422 326.688,284.627 326.356 C 284.748 326.160,285.276 326.000,285.800 326.000 C 286.324 326.000,286.864 325.820,287.000 325.600 C 287.136 325.380,287.605 325.200,288.043 325.200 C 288.481 325.200,289.584 324.840,290.494 324.400 C 291.405 323.960,292.389 323.600,292.681 323.600 C 292.972 323.600,293.523 323.441,293.905 323.247 C 294.287 323.052,295.050 322.703,295.600 322.470 C 302.824 319.409,310.536 314.992,314.200 311.816 C 314.860 311.244,315.987 310.287,316.705 309.688 C 317.423 309.090,318.773 307.610,319.704 306.400 C 320.636 305.190,321.492 304.110,321.607 304.000 C 321.722 303.890,322.416 302.540,323.150 301.000 C 323.884 299.460,324.645 297.887,324.842 297.505 C 325.039 297.123,325.200 296.459,325.200 296.029 C 325.200 295.599,325.380 295.136,325.600 295.000 C 325.820 294.864,326.000 294.324,326.000 293.800 C 326.000 293.276,326.160 292.748,326.356 292.627 C 326.551 292.506,326.812 291.821,326.934 291.104 C 327.056 290.387,327.356 288.900,327.602 287.800 C 329.903 277.481,329.685 271.323,326.928 268.746 C 325.693 267.593,319.416 263.200,319.002 263.200 C 318.860 263.200,317.992 262.699,317.072 262.088 C 316.152 261.476,314.860 260.711,314.200 260.388 C 313.540 260.065,312.910 259.711,312.800 259.601 C 312.560 259.360,311.319 258.647,308.500 257.130 C 307.345 256.508,305.455 255.485,304.300 254.854 C 303.145 254.224,300.760 252.944,299.000 252.009 C 297.240 251.074,295.260 249.988,294.600 249.595 C 293.940 249.202,292.230 248.259,290.800 247.500 C 289.370 246.741,287.525 245.733,286.700 245.260 C 285.875 244.787,284.561 244.038,283.781 243.596 C 283.000 243.154,280.525 241.568,278.281 240.072 C 266.833 232.441,262.342 233.828,250.015 248.800 C 248.838 250.230,247.176 252.135,246.322 253.032 C 245.469 253.930,244.490 255.065,244.147 255.554 C 242.213 258.315,235.306 265.271,233.140 266.638 C 230.012 268.612,223.514 267.124,217.938 263.156 C 217.354 262.740,216.788 262.400,216.679 262.400 C 216.571 262.400,215.297 261.680,213.848 260.800 C 212.400 259.920,211.031 259.200,210.807 259.200 C 210.583 259.200,210.400 259.020,210.400 258.800 C 210.400 258.580,210.230 258.400,210.021 258.400 C 209.222 258.400,195.899 249.957,194.516 248.573 C 194.201 248.258,193.789 248.000,193.600 248.000 C 193.411 248.000,193.019 247.769,192.729 247.487 C 192.438 247.205,191.570 246.538,190.800 246.006 C 190.030 245.473,189.109 244.714,188.753 244.319 C 188.397 243.924,187.947 243.596,187.753 243.591 C 187.559 243.586,186.741 243.001,185.935 242.291 C 184.203 240.765,181.312 238.339,179.185 236.626 C 176.998 234.865,166.232 223.895,163.400 220.542 C 160.625 217.257,160.274 216.827,158.394 214.400 C 157.628 213.410,156.901 212.510,156.781 212.400 C 156.660 212.290,156.129 211.570,155.600 210.800 C 155.071 210.030,154.520 209.310,154.375 209.200 C 153.878 208.821,145.600 196.479,145.600 196.115 C 145.600 195.915,145.275 195.402,144.878 194.975 C 144.480 194.549,143.897 193.615,143.580 192.900 C 143.264 192.185,142.869 191.600,142.702 191.600 C 142.536 191.600,142.400 191.330,142.400 191.000 C 142.400 190.670,142.212 190.400,141.983 190.400 C 141.555 190.400,142.884 192.916,144.874 195.872 C 145.493 196.792,146.000 197.654,146.000 197.787 C 146.000 198.541,154.507 210.388,159.366 216.400 C 169.076 228.416,180.574 239.286,192.800 248.008 C 197.087 251.066,205.134 256.400,205.460 256.400 C 205.612 256.400,206.021 256.647,206.369 256.948 C 206.716 257.250,207.810 257.943,208.800 258.488 C 209.790 259.033,212.580 260.654,215.000 262.089 C 230.025 270.997,231.766 270.717,243.036 257.580 C 265.043 231.927,265.460 231.758,280.785 242.300 C 282.144 243.235,283.318 244.000,283.392 244.000 C 283.467 244.000,284.849 244.749,286.464 245.664 C 288.079 246.579,290.120 247.717,291.000 248.193 C 291.880 248.669,295.030 250.379,298.000 251.995 C 300.970 253.610,304.300 255.416,305.400 256.008 C 318.866 263.256,326.762 268.502,328.001 271.026 C 330.463 276.038,326.352 295.570,321.134 303.658 C 312.077 317.697,279.565 331.083,261.107 328.373 C 259.508 328.138,256.940 327.765,255.400 327.542 C 248.229 326.508,241.540 324.468,224.200 318.028 C 214.579 314.454,214.646 314.480,211.900 313.251 C 210.855 312.783,209.235 312.064,208.300 311.654 C 199.763 307.905,186.841 300.665,178.648 295.039 C 176.695 293.697,174.805 292.418,174.448 292.195 C 174.092 291.973,172.022 290.443,169.849 288.795 C 167.675 287.148,165.425 285.450,164.849 285.022 C 164.272 284.595,163.153 283.695,162.363 283.022 C 161.572 282.350,160.580 281.530,160.157 281.200 C 148.979 272.469,129.540 253.041,119.771 240.837 C 119.347 240.308,118.459 239.228,117.798 238.437 C 117.137 237.647,116.047 236.280,115.377 235.400 C 114.706 234.520,112.992 232.270,111.568 230.400 C 102.110 217.979,92.092 200.388,86.397 186.200 C 81.121 173.055,75.182 155.566,74.036 149.800 C 71.251 135.790,71.479 129.037,75.196 115.400 C 77.013 108.736,84.331 92.693,86.418 90.800 C 86.539 90.690,87.071 89.970,87.600 89.200 C 88.129 88.430,88.661 87.710,88.783 87.600 C 88.905 87.490,89.506 86.727,90.119 85.904 C 92.303 82.975,97.197 79.035,100.250 77.748 C 107.957 74.499,114.893 72.838,123.685 72.135 C 130.994 71.550,132.604 73.278,144.147 94.100 C 145.539 96.611,146.960 99.170,148.258 101.500 C 150.719 105.918,155.288 114.395,156.400 116.607 C 156.730 117.263,157.500 118.520,158.112 119.400 C 163.746 127.510,164.907 129.930,164.941 133.623 C 164.985 138.411,159.961 144.467,149.200 152.600 C 142.747 157.477,136.397 163.457,134.356 166.580 C 132.765 169.013,132.061 173.896,133.200 174.600 C 133.420 174.736,133.600 175.287,133.600 175.824 C 133.600 176.361,133.780 176.800,134.000 176.800 C 134.220 176.800,134.400 177.064,134.400 177.386 C 134.400 178.044,135.406 179.934,138.927 185.894 C 140.257 188.145,141.411 189.922,141.492 189.842 C 141.643 189.690,139.832 186.250,139.048 185.200 C 137.745 183.455,134.000 176.021,134.000 175.178 C 134.000 174.776,133.820 174.336,133.600 174.200 C 131.074 172.639,135.872 163.529,141.116 159.931 C 141.620 159.585,142.880 158.507,143.916 157.536 C 144.952 156.564,146.430 155.335,147.200 154.804 C 147.970 154.273,148.690 153.736,148.800 153.610 C 148.910 153.485,150.620 152.098,152.600 150.529 C 155.908 147.907,161.584 142.321,163.323 139.975 C 166.698 135.423,166.308 130.744,162.029 124.443 C 161.133 123.124,160.400 121.869,160.400 121.655 C 160.400 121.442,160.258 121.207,160.086 121.133 C 159.576 120.917,158.125 118.702,156.561 115.753 C 154.451 111.772,152.463 108.118,151.038 105.600 C 150.354 104.390,149.525 102.860,149.197 102.200 C 148.869 101.540,148.511 100.910,148.401 100.800 C 148.290 100.690,147.781 99.790,147.268 98.800 C 145.783 95.932,144.616 93.816,144.400 93.600 C 144.290 93.490,143.823 92.680,143.362 91.800 C 142.900 90.920,142.108 89.480,141.600 88.600 C 141.092 87.720,140.196 86.100,139.609 85.000 C 136.636 79.425,131.942 73.261,129.854 72.189 C 128.695 71.593,120.819 71.314,120.283 71.850 " stroke="none" fill="#4781c9" fill-rule="evenodd"></path></g></svg>