<svg id="Layer_1" data-name="Layer 1" xmlns="http://www.w3.org/2000/svg" viewBox="0 0 365.58 121.48"><defs><style>.cls-1{fill:#fff;}.cls-2{fill:#f7a290;}</style></defs><title>Ba logo 1</title><path class="cls-1" d="M35.36,82.39A21.65,21.65,0,1,1,57,60.74,21.65,21.65,0,0,1,35.36,82.39m0-57a35.2,35.2,0,0,0-21.73,7.46l-.08-7.46H0V60.79C0,60.87,0,61,0,61s0,.46,0,.69,0,.54,0,.81v0c0,.14,0,.28,0,.42h0A35.36,35.36,0,1,0,35.36,25.38Z"/><path class="cls-2" d="M78.63,25.38A35.2,35.2,0,0,0,57,32.77a35.53,35.53,0,0,1,9,10.37,21.65,21.65,0,1,1,0,35.21,35.5,35.5,0,0,1-9,10.37,35.36,35.36,0,0,0,43.35-.06V96.1H114V60.74A35.36,35.36,0,0,0,78.63,25.38"/><path class="cls-1" d="M131.14,121.48a.91.91,0,0,1-.91-.91V.91a.91.91,0,0,1,1.81,0V120.58a.91.91,0,0,1-.91.91"/><path class="cls-1" d="M150.61,29.85a10,10,0,1,0,20.06,0,10,10,0,1,0-20.06-.43Zm-2.62.53V6.8a1.31,1.31,0,0,1,2.62,0v15a12.47,12.47,0,0,1,10-5.12,12.85,12.85,0,0,1,12.64,13.12,12.82,12.82,0,0,1-12.64,13,12.43,12.43,0,0,1-10-5.07v3.79a1.31,1.31,0,0,1-2.62,0Z"/><path class="cls-1" d="M182.68,18a1.28,1.28,0,0,1,2.56,0V32.2a8.06,8.06,0,1,0,16.11,0V18a1.3,1.3,0,0,1,1.28-1.28A1.28,1.28,0,0,1,204,18V32.2a10.64,10.64,0,1,1-21.29,0Z"/><path class="cls-1" d="M214.11,37.42a1.27,1.27,0,0,1,1.81-.16,14,14,0,0,0,8,3,7.88,7.88,0,0,0,5-1.6,4,4,0,0,0,2-3.2A4.12,4.12,0,0,0,229,32.3a13,13,0,0,0-5.55-1.92l-.11-.05a14.89,14.89,0,0,1-5.92-2,5.46,5.46,0,0,1-2.83-4.7,6.48,6.48,0,0,1,2.83-5.12,11.25,11.25,0,0,1,6.4-1.76c3.36,0,5.76,1.55,7.79,2.83a1.36,1.36,0,0,1,.37,1.81,1.28,1.28,0,0,1-1.76.37c-1.92-1.28-3.84-2.61-6.4-2.61a7.86,7.86,0,0,0-5,1.49,3.92,3.92,0,0,0-1.65,3,3.17,3.17,0,0,0,1.49,2.61A13.18,13.18,0,0,0,224,28h.11a18.2,18.2,0,0,1,6.35,2.13,6.52,6.52,0,0,1,2.93,5.34,6.65,6.65,0,0,1-3,5.28,10.66,10.66,0,0,1-6.51,2.08,15.86,15.86,0,0,1-9.66-3.73,1.2,1.2,0,0,1-.16-1.71"/><path class="cls-1" d="M242.22,18a1.26,1.26,0,0,1,1.28-1.28A1.28,1.28,0,0,1,244.84,18V41.59a1.31,1.31,0,0,1-2.61,0Zm0-8.54a1.31,1.31,0,0,1,2.61,0V10.7a1.31,1.31,0,1,1-2.61,0Z"/><path class="cls-1" d="M275.84,27.39a8,8,0,0,0-8.06-8.06,8.2,8.2,0,0,0-8.11,8.06V41.8a1.18,1.18,0,0,1-.27.59,1.14,1.14,0,0,1-1,.48h-.32a1.39,1.39,0,0,1-.85-.69.19.19,0,0,1-.05-.16.19.19,0,0,0-.05-.11V18.06a1.25,1.25,0,1,1,2.51,0v2.51a10.6,10.6,0,0,1,18.73,6.83V41.59a1.28,1.28,0,0,1-2.56,0Z"/><path class="cls-1" d="M290.72,27.77h19.79a10.09,10.09,0,0,0-9.82-8.48,10.21,10.21,0,0,0-10,8.48M288,29.85a12.89,12.89,0,0,1,12.7-13.12c6.72,0,12.06,5.34,12.59,12.17v.21A1.21,1.21,0,0,1,312,30.27H290.56a10.28,10.28,0,0,0,10.14,10,9.83,9.83,0,0,0,8.43-4.75,1.24,1.24,0,0,1,1.71-.43,1.36,1.36,0,0,1,.43,1.81,12.46,12.46,0,0,1-10.56,5.92A12.87,12.87,0,0,1,288,29.85Z"/><path class="cls-1" d="M320.55,37.42a1.27,1.27,0,0,1,1.81-.16,14,14,0,0,0,8,3,7.89,7.89,0,0,0,5-1.6,4,4,0,0,0,2-3.2,4.13,4.13,0,0,0-1.87-3.2,13,13,0,0,0-5.55-1.92l-.11-.05a14.88,14.88,0,0,1-5.92-2,5.46,5.46,0,0,1-2.83-4.7,6.48,6.48,0,0,1,2.83-5.12,11.25,11.25,0,0,1,6.4-1.76c3.36,0,5.76,1.55,7.79,2.83a1.36,1.36,0,0,1,.37,1.81,1.28,1.28,0,0,1-1.76.37c-1.92-1.28-3.84-2.61-6.4-2.61a7.85,7.85,0,0,0-5,1.49,3.92,3.92,0,0,0-1.65,3,3.16,3.16,0,0,0,1.49,2.61A13.17,13.17,0,0,0,330.47,28h.11a18.22,18.22,0,0,1,6.35,2.13,6.53,6.53,0,0,1,2.93,5.34,6.66,6.66,0,0,1-3,5.28,10.66,10.66,0,0,1-6.51,2.08,15.86,15.86,0,0,1-9.66-3.73,1.2,1.2,0,0,1-.16-1.71"/><path class="cls-1" d="M346.27,37.42a1.27,1.27,0,0,1,1.81-.16,14,14,0,0,0,8,3,7.89,7.89,0,0,0,5-1.6,4,4,0,0,0,2-3.2,4.13,4.13,0,0,0-1.87-3.2,13,13,0,0,0-5.55-1.92l-.11-.05a14.88,14.88,0,0,1-5.92-2,5.46,5.46,0,0,1-2.83-4.7,6.48,6.48,0,0,1,2.83-5.12,11.25,11.25,0,0,1,6.4-1.76c3.36,0,5.76,1.55,7.79,2.83a1.36,1.36,0,0,1,.37,1.81,1.28,1.28,0,0,1-1.76.37c-1.92-1.28-3.84-2.61-6.4-2.61a7.85,7.85,0,0,0-5,1.49,3.92,3.92,0,0,0-1.66,3,3.17,3.17,0,0,0,1.49,2.61A13.19,13.19,0,0,0,356.19,28h.11a18.22,18.22,0,0,1,6.35,2.13,6.53,6.53,0,0,1,2.93,5.34,6.66,6.66,0,0,1-3,5.28,10.66,10.66,0,0,1-6.51,2.08,15.86,15.86,0,0,1-9.66-3.73,1.2,1.2,0,0,1-.16-1.71"/><path class="cls-2" d="M171.92,72.46c0-6.62-5.09-12-11.28-12s-11.28,5.37-11.28,12,5.09,12,11.28,12,11.28-5.37,11.28-12m1.37-12.7v25.4a.65.65,0,0,1-.66.71.66.66,0,0,1-.71-.71V78.48a12.58,12.58,0,0,1-11.28,7.39c-7,0-12.65-6.08-12.65-13.41S153.64,59,160.64,59a12.68,12.68,0,0,1,11.28,7.39V59.76a.72.72,0,0,1,.71-.71A.72.72,0,0,1,173.29,59.76Z"/><path class="cls-2" d="M184.84,72.63a.35.35,0,0,1,0-.33V59.76a.72.72,0,0,1,.66-.71.65.65,0,0,1,.66.71v9.09a23.13,23.13,0,0,1,1.7-3.18c2.08-3.12,5.53-6.62,10.68-6.62a.71.71,0,0,1,0,1.42,10.28,10.28,0,0,0-7.78,3.67,25.14,25.14,0,0,0-3.94,6.63c-.44,1.2-.66,1.86-.66,1.86V85.16a.62.62,0,0,1-.66.71.68.68,0,0,1-.66-.71Z"/><path class="cls-2" d="M249.12,69.89a9.36,9.36,0,0,0-18.72-.38V85.16c0,.11,0,.17-.06.22s-.05.11-.05.17-.05.05-.05.11a.71.71,0,0,1-.55.22.68.68,0,0,1-.66-.71V69.89a9.39,9.39,0,0,0-18.78-.38V85.16a.79.79,0,0,1-.11.38c-.05.05-.05.05-.05.11s-.05.06-.11.06a.59.59,0,0,1-.38.16h-.16a.71.71,0,0,1-.6-.71V69.89a10.36,10.36,0,0,1,.11-1.31V59.76c0-.44.22-.71.66-.71a.68.68,0,0,1,.66.71v4.87a10.7,10.7,0,0,1,19.44,1.42,10.74,10.74,0,0,1,20.81,3.83V85.16a.68.68,0,0,1-.66.71.76.76,0,0,1-.71-.71Z"/><path class="cls-2" d="M260.4,71h23.1a11.6,11.6,0,0,0-23.1,0M259,72.46A13.29,13.29,0,0,1,272,59a13,13,0,0,1,12.87,12.37v.22a.75.75,0,0,1-.66.66H260.35v.16a11.93,11.93,0,0,0,11.66,12A11.33,11.33,0,0,0,281.64,79a.75.75,0,0,1,1-.17.68.68,0,0,1,.16.93A13,13,0,0,1,272,85.87,13.43,13.43,0,0,1,259,72.46Z"/><path class="cls-2" d="M314.5,69.89a9.44,9.44,0,1,0-18.89,0V85.16a.62.62,0,0,1-.16.44.57.57,0,0,1-.49.27h-.22c-.05-.05-.11-.05-.16-.11s-.11-.05-.16-.11-.06-.06-.06-.11a.42.42,0,0,1-.11-.27V59.71A.65.65,0,0,1,295,59a.6.6,0,0,1,.66.66v4.93a10.8,10.8,0,0,1,20.26,5.26V85.16a.72.72,0,0,1-.71.71.65.65,0,0,1-.66-.71Z"/><path class="cls-2" d="M327.86,59.7c0-.44.27-.66.71-.66a.63.63,0,0,1,.66.66V85.16a.71.71,0,0,1-.66.71.69.69,0,0,1-.71-.71Zm0-8.6a.66.66,0,0,1,.71-.71.68.68,0,0,1,.66.71v1.31a.71.71,0,0,1-.66.66.68.68,0,0,1-.71-.66Z"/><path class="cls-2" d="M364.21,72.46c0-6.62-5.09-12-11.28-12s-11.28,5.37-11.28,12,5.09,12,11.28,12,11.28-5.37,11.28-12m1.37-12.7v25.4a.65.65,0,0,1-.66.71.66.66,0,0,1-.71-.71V78.48a12.58,12.58,0,0,1-11.28,7.39c-7,0-12.65-6.08-12.65-13.41S345.92,59,352.93,59a12.68,12.68,0,0,1,11.28,7.39V59.76a.72.72,0,0,1,.71-.71A.72.72,0,0,1,365.58,59.76Z"/><path class="cls-2" d="M152.4,104.26c-1.62,0-2.89.62-2.89,2,0,3.11,6.76,1.58,6.76,5.67,0,2.16-1.93,3.11-4,3.11a6.16,6.16,0,0,1-4.25-1.6l.42-.71a5.69,5.69,0,0,0,3.87,1.47c1.62,0,3-.65,3.09-2.11.09-3.27-6.76-1.78-6.76-5.76,0-2,1.76-2.91,3.8-2.91a6.28,6.28,0,0,1,3.31.91l-.4.76a5.47,5.47,0,0,0-2.93-.82"/><path class="cls-2" d="M171.92,108V115H171v-6.89a3.46,3.46,0,0,0-3.78-3.78c-2.87.07-4.54,2-4.54,5V115h-.93V98.53h.93v7.94a4.8,4.8,0,0,1,4.76-3,4.15,4.15,0,0,1,4.49,4.54"/><path class="cls-2" d="M179.31,103.44v0Zm0,11.59h-.91V103.44h.91Zm.33-14.92a.78.78,0,1,1-.78-.8A.8.8,0,0,1,179.64,100.11Z"/><path class="cls-2" d="M187.33,102v1.76h3.58v.8h-3.58V115h-.91V104.53H185v-.8h1.47v-1.67a3.48,3.48,0,0,1,3.42-3.74,4.32,4.32,0,0,1,1.89.53l-.29.8a3.66,3.66,0,0,0-1.58-.45,2.57,2.57,0,0,0-2.53,2.76"/><path class="cls-2" d="M200.74,114.23a4.24,4.24,0,0,1-2.42.82c-1.65,0-2.62-1-2.62-3.22v-7.29H194v-.8h1.69v-2.87h.89v2.87h3.93v.8h-3.93v7.18c0,1.65.64,2.45,1.84,2.42a3.45,3.45,0,0,0,2-.67Z"/><path class="cls-2" d="M206.7,103.44v0Zm0,11.59h-.91V103.44h.91Zm.33-14.92a.78.78,0,1,1-.78-.8A.8.8,0,0,1,207,100.11Z"/><path class="cls-2" d="M223.73,108V115h-.93v-6.89a3.46,3.46,0,0,0-3.78-3.78,4.37,4.37,0,0,0-4.51,4.4V115h-.93V103.44h.93v3a4.8,4.8,0,0,1,4.74-3,4.15,4.15,0,0,1,4.49,4.54"/><path class="cls-2" d="M239.06,109a4.62,4.62,0,1,0-4.63,4.73,4.55,4.55,0,0,0,4.63-4.73m.89-5.58v10.32a5.24,5.24,0,0,1-5.6,5.6,6.73,6.73,0,0,1-4.69-1.89l.49-.69a5.86,5.86,0,0,0,4.18,1.71,4.42,4.42,0,0,0,4.74-4.71v-2.2a5,5,0,0,1-4.74,3,5.58,5.58,0,0,1,0-11.14,5,5,0,0,1,4.76,3v-3Z"/><rect class="cls-2" x="255.49" y="98.53" width="0.93" height="16.5"/><path class="cls-2" d="M264.3,103.44v0Zm0,11.59h-.91V103.44h.91Zm.33-14.92a.78.78,0,1,1-1.56,0,.78.78,0,1,1,1.56,0Z"/><path class="cls-2" d="M290.15,108V115h-.91v-6.89a3.43,3.43,0,0,0-3.71-3.78c-2.78.07-4.4,2-4.4,5V115h-.91v-6.89a3.44,3.44,0,0,0-3.71-3.78c-2.78.07-4.42,2-4.42,5V115h-.91V103.44h.91v3a4.69,4.69,0,0,1,4.67-3.07,4,4,0,0,1,4.27,3.36,4.69,4.69,0,0,1,4.74-3.36c2.78,0,4.4,1.71,4.4,4.54"/><path class="cls-2" d="M297.54,103.44v0Zm0,11.59h-.91V103.44h.91Zm.33-14.92a.78.78,0,1,1-1.56,0,.78.78,0,1,1,1.56,0Z"/><path class="cls-2" d="M309.86,114.23a4.24,4.24,0,0,1-2.42.82c-1.65,0-2.62-1-2.62-3.22v-7.29h-1.69v-.8h1.69v-2.87h.89v2.87h3.93v.8H305.7v7.18c0,1.65.64,2.45,1.84,2.42a3.45,3.45,0,0,0,2-.67Z"/><path class="cls-2" d="M317.62,104.26c-1.62,0-2.89.62-2.89,2,0,3.11,6.76,1.58,6.76,5.67,0,2.16-1.93,3.11-4,3.11a6.16,6.16,0,0,1-4.25-1.6l.42-.71a5.69,5.69,0,0,0,3.87,1.47c1.62,0,3-.65,3.09-2.11.09-3.27-6.76-1.78-6.76-5.76,0-2,1.76-2.91,3.8-2.91a6.28,6.28,0,0,1,3.31.91l-.4.76a5.47,5.47,0,0,0-2.93-.82"/></svg>